<svg version="1.1" id="Layer_1" xmlns="http://www.w3.org/2000/svg" xmlns:xlink="http://www.w3.org/1999/xlink" x="0px" y="0px"
	 width="100%" viewBox="0 0 124 120" enable-background="new 0 0 124 120" xml:space="preserve">
<path fill="#FFFDFD" opacity="1.000000" stroke="none" 
	d="
M82.000000,121.000000 
	C54.666668,121.000000 27.833334,121.000000 1.000000,121.000000 
	C1.000000,81.000000 1.000000,41.000000 1.000000,1.000000 
	C42.333332,1.000000 83.666664,1.000000 125.000000,1.000000 
	C125.000000,41.000000 125.000000,81.000000 125.000000,121.000000 
	C110.833336,121.000000 96.666664,121.000000 82.000000,121.000000 
M9.124496,84.233643 
	C11.795919,95.031891 20.060045,97.854759 28.985744,91.374573 
	C36.228809,86.115990 43.701080,81.142853 51.309078,76.426003 
	C58.388638,72.036766 65.936172,72.015152 73.041351,76.352135 
	C81.248657,81.361847 89.210358,86.778755 97.213257,92.116982 
	C103.511887,96.318398 109.861145,95.546745 113.838310,89.923286 
	C117.639359,84.548843 116.427620,78.124275 110.642006,73.779877 
	C105.087784,69.609230 99.431969,65.573891 93.777977,61.447838 
	C99.756767,57.076797 105.717491,52.857841 111.517815,48.428810 
	C115.286560,45.551064 116.724731,41.548233 115.623787,36.906773 
	C114.582970,32.518799 111.709900,29.606882 107.400940,28.323814 
	C102.710182,26.927061 99.156166,29.312307 95.529984,31.923851 
	C89.206635,36.477875 82.757980,40.872616 76.202278,45.085819 
	C66.672623,51.210297 57.061337,50.914021 47.723141,44.606052 
	C40.843258,39.958687 34.156921,35.025421 27.295385,30.350107 
	C19.930773,25.332001 10.750545,29.053055 9.271697,37.627308 
	C8.455737,42.358189 10.355637,46.124756 14.082210,48.941769 
	C19.689419,53.180389 25.381193,57.307137 30.998623,61.453110 
	C25.289736,65.663109 19.463398,69.331291 14.466651,73.905670 
	C11.910214,76.246010 10.839060,80.208778 9.124496,84.233643 
M58.585629,117.157135 
	C65.810211,118.559212 71.585373,116.503807 75.083847,110.978790 
	C78.489502,105.600349 78.543434,100.001465 75.196289,94.569664 
	C71.758072,88.990082 65.417885,86.579445 58.754734,88.064171 
	C52.837128,89.382767 48.241669,94.798317 47.617298,101.189163 
	C46.914547,108.382286 50.267384,113.582382 58.585629,117.157135 
M73.251778,30.754482 
	C78.279648,24.494844 78.983490,17.756361 75.212975,11.978281 
	C71.727036,6.636300 65.299812,4.003597 59.220959,5.427675 
	C53.068256,6.869054 48.637589,11.597486 47.765247,17.717228 
	C46.828438,24.289160 49.130043,29.467304 54.721169,33.029884 
	C60.152214,36.490463 66.645454,35.780354 73.251778,30.754482 
z"/>
<path fill="#F30316" opacity="1.000000" stroke="none" 
	d="
M9.110556,83.835953 
	C10.839060,80.208778 11.910214,76.246010 14.466651,73.905670 
	C19.463398,69.331291 25.289736,65.663109 30.998623,61.453110 
	C25.381193,57.307137 19.689419,53.180389 14.082210,48.941769 
	C10.355637,46.124756 8.455737,42.358189 9.271697,37.627308 
	C10.750545,29.053055 19.930773,25.332001 27.295385,30.350107 
	C34.156921,35.025421 40.843258,39.958687 47.723141,44.606052 
	C57.061337,50.914021 66.672623,51.210297 76.202278,45.085819 
	C82.757980,40.872616 89.206635,36.477875 95.529984,31.923851 
	C99.156166,29.312307 102.710182,26.927061 107.400940,28.323814 
	C111.709900,29.606882 114.582970,32.518799 115.623787,36.906773 
	C116.724731,41.548233 115.286560,45.551064 111.517815,48.428810 
	C105.717491,52.857841 99.756767,57.076797 93.777977,61.447838 
	C99.431969,65.573891 105.087784,69.609230 110.642006,73.779877 
	C116.427620,78.124275 117.639359,84.548843 113.838310,89.923286 
	C109.861145,95.546745 103.511887,96.318398 97.213257,92.116982 
	C89.210358,86.778755 81.248657,81.361847 73.041351,76.352135 
	C65.936172,72.015152 58.388638,72.036766 51.309078,76.426003 
	C43.701080,81.142853 36.228809,86.115990 28.985744,91.374573 
	C20.060045,97.854759 11.795919,95.031891 9.110556,83.835953 
z"/>
<path fill="#F30417" opacity="1.000000" stroke="none" 
	d="
M58.197166,117.076347 
	C50.267384,113.582382 46.914547,108.382286 47.617298,101.189163 
	C48.241669,94.798317 52.837128,89.382767 58.754734,88.064171 
	C65.417885,86.579445 71.758072,88.990082 75.196289,94.569664 
	C78.543434,100.001465 78.489502,105.600349 75.083847,110.978790 
	C71.585373,116.503807 65.810211,118.559212 58.197166,117.076347 
z"/>
<path fill="#F30416" opacity="1.000000" stroke="none" 
	d="
M72.982887,31.012121 
	C66.645454,35.780354 60.152214,36.490463 54.721169,33.029884 
	C49.130043,29.467304 46.828438,24.289160 47.765247,17.717228 
	C48.637589,11.597486 53.068256,6.869054 59.220959,5.427675 
	C65.299812,4.003597 71.727036,6.636300 75.212975,11.978281 
	C78.983490,17.756361 78.279648,24.494844 72.982887,31.012121 
z"/>
</svg>